<?xml version="1.0" encoding="UTF-8"?><svg id="_ëîé_2" xmlns="http://www.w3.org/2000/svg" viewBox="0 0 284.15 107.8"><defs><style>.cls-1{fill:#162623;}.cls-2{fill:#fff;}</style></defs><path class="cls-1" d="M34.59,97.06L10.93,50.11l-1.65-.81c-1.04-.18-9.72,.1-9.26,1.05H.02l3.12,.22-2.67,.71,.34,.71,3.13,.22-2.68,.71,.34,.7,3.14,.22-2.69,.72,.34,.7,3.15,.22-2.7,.72,.34,.7,3.16,.23-2.71,.72,.34,.7,3.17,.23-2.71,.72,.33,.69,3.18,.23-2.72,.72,.33,.69,3.19,.23-2.73,.73,.33,.69,3.2,.23-2.74,.73,.33,.69,3.21,.23-2.75,.73,.33,.68,3.22,.23-2.75,.73,.33,.68,3.23,.23-2.76,.74,.33,.68,3.24,.23-2.77,.74,.32,.67,3.25,.23-2.78,.74,.32,.67,3.26,.23-2.79,.74,.32,.67,3.27,.23-2.8,.74,.32,.67,3.28,.23-2.8,.75,.32,.66,3.29,.23-2.81,.75,.32,.66,3.3,.23-2.82,.75,.32,.66,3.3,.24-2.83,.75,.31,.65,3.31,.24-2.84,.76,.31,.65,3.32,.24-2.84,.76,.31,.65,3.33,.24-2.85,.76,.31,.65,3.34,.24-2.86,.76,.31,.64,3.35,.24-2.87,.76,1.06,2.21,5.74,5.45,31.7,9.37,2.46-3.14-25.86-7.6Z"/><polygon class="cls-1" points="19.1 41.34 10.93 50.11 30.75 89.51 40.75 81.39 19.1 41.34"/><path class="cls-2" d="M30.6,90.24L10.37,50.03l9.25-9.24,21.72,40.71-10.74,8.73ZM11.49,50.19l19.42,38.6,9.25-7.52L18.99,42.13l-7.51,8.06Z"/><polygon class="cls-1" points="40.75 81.39 40.99 87.04 36.39 91.12 30.75 89.51 40.75 81.39"/><path class="cls-2" d="M30.26,89.61l10.7-8.7,.26,6.23-4.78,4.24-6.19-1.76Zm10.28-7.76l-9.29,7.55,5.09,1.45,4.42-3.92-.22-5.08Z"/><path class="cls-1" d="M19.1,41.34l.52-.55c1.62-1.71,3.57-3.07,5.73-3.99,11.09-4.73,48.91-19.76,100.07-28.44C186.69-2.02,213.15,.2,213.15,.2c0,0,16.16,12.89,18.6,20.91,.35,8.06-5.36,16.7-9.7,20.9-25.06,10.22-105.36,50.32-151.76,54.94l-29.3-9.9-.24-5.65L19.1,41.34Z"/><polygon class="cls-1" points="39.6 86.84 36.39 91.12 29 89.01 24.32 91.39 29.97 95.68 60.76 104.75 70.28 96.94 39.6 86.84"/><path class="cls-2" d="M29.86,95.89l-5.98-4.54,5.09-2.58,7.32,2.09,3.22-4.28,31.24,10.28-9.95,8.15-.12-.03-30.83-9.08Zm-5.11-4.46l5.32,4.04,30.63,9.02,9.1-7.46-30.13-9.92-3.21,4.27-7.46-2.12-4.27,2.17Z"/><path class="cls-1" d="M71.92,87.29h0c.17-2.75,2.32-4.97,5.07-5.22l15.96-1.45,1.72,2.2-1.7,8.54-16.59,.53c-2.55,.08-4.62-2.05-4.46-4.59Z"/><path class="cls-2" d="M92.97,91.35s-.75,.04-2.06,.11c-1.31,.06-3.18,.15-5.42,.26-2.24,.09-4.86,.2-7.66,.31-.35,.01-.7,.02-1.06,.04h-.55c-.18,0-.36,0-.55-.02-.76-.09-1.49-.37-2.12-.84-1.26-.9-2.01-2.51-1.85-4.09,.13-1.54,.93-3.03,2.13-3.98,.59-.48,1.28-.84,2-1.05,.36-.11,.73-.17,1.09-.21,.36-.03,.71-.06,1.06-.09,2.8-.23,5.41-.44,7.65-.62,2.24-.17,4.1-.31,5.41-.41,1.31-.09,2.05-.14,2.05-.14,0,0-.74,.08-2.05,.23-1.3,.14-3.16,.34-5.4,.58-2.23,.22-4.84,.49-7.63,.77-.35,.03-.7,.07-1.05,.1-.34,.04-.68,.1-1.01,.21-.66,.2-1.3,.54-1.84,.99-1.11,.89-1.82,2.26-1.94,3.7-.16,1.41,.5,2.88,1.64,3.7,.55,.43,1.23,.68,1.9,.77,.16,.03,.34,.03,.52,.04h.52c.36-.02,.71-.03,1.06-.04,2.81-.06,5.42-.12,7.67-.17,2.24-.04,4.12-.07,5.43-.09,1.31-.01,2.06-.02,2.06-.02Z"/><path class="cls-1" d="M93.81,78.41l54.01-2.3c1.43-.06,2.68,.99,2.86,2.41h0c.09,.69-.07,1.4-.44,1.99l-5.37,8.58c-.52,.83-1.4,1.36-2.37,1.42l-48.45,3.45,2.22-11.23-2.47-4.32Z"/><path class="cls-2" d="M93.81,78.41s.84-.05,2.32-.14c1.48-.08,3.58-.2,6.11-.35,2.53-.13,5.48-.28,8.65-.44,3.16-.14,6.54-.3,9.91-.45,3.38-.13,6.75-.27,9.92-.39,3.17-.11,6.12-.21,8.65-.3,2.53-.07,4.64-.13,6.12-.18l2.32-.05s-.84,.05-2.32,.14c-1.48,.08-3.58,.2-6.11,.35-2.53,.13-5.48,.28-8.65,.44-3.16,.14-6.54,.3-9.91,.45-3.38,.13-6.75,.27-9.92,.39-3.17,.11-6.12,.21-8.65,.3-2.53,.07-4.64,.13-6.12,.18l-2.32,.05Z"/><polygon class="cls-1" points="92.78 80.02 93.81 78.41 96.28 82.73 94.05 93.97 92.97 91.35 94.67 82.81 92.78 80.02"/><path class="cls-2" d="M94.05,93.97c-.38-.86-.77-1.72-1.14-2.59v-.04c.25-1.43,.53-2.85,.8-4.28,.27-1.43,.57-2.85,.86-4.27l.02,.08c-.62-.93-1.24-1.88-1.85-2.82l-.02-.03,.02-.03,1.07-1.58-.99,1.64v-.06c.65,.92,1.29,1.84,1.93,2.76l.02,.03v.04c-.29,1.42-.55,2.85-.85,4.27-.29,1.42-.58,2.84-.89,4.26v-.04c.35,.88,.67,1.76,1.01,2.64Z"/><path class="cls-2" d="M93.81,78.41c.23,.35,.46,.69,.68,1.05,.22,.35,.45,.7,.66,1.05,.43,.71,.87,1.41,1.3,2.13l.04,.06v.08c-.35,1.88-.72,3.75-1.11,5.62-.19,.93-.41,1.86-.63,2.79-.1,.47-.21,.93-.33,1.39-.12,.46-.23,.93-.36,1.39,.06-.48,.13-.95,.2-1.42,.07-.47,.14-.94,.22-1.42,.16-.94,.31-1.88,.48-2.82,.35-1.88,.71-3.75,1.12-5.61l.02,.14c-.4-.73-.78-1.47-1.17-2.2-.2-.36-.38-.74-.57-1.11-.19-.37-.37-.74-.55-1.12Z"/><path class="cls-2" d="M96.86,83.11s14.34-.53,28.67-1.07c3.58-.13,7.17-.27,10.53-.39,1.68-.06,3.3-.12,4.84-.18,.75-.03,1.48-.12,2.18-.25,.71-.13,1.4-.26,2.06-.39,.66-.12,1.29-.24,1.9-.36,.3-.06,.59-.11,.88-.16l.09-.02,.1-.02c.06-.02,.09-.03,.15-.05,.1-.04,.2-.09,.29-.15,.36-.24,.58-.6,.62-.94,.01-.09,.01-.16,0-.27,0-.06-.02-.14-.04-.22-.04-.14-.12-.27-.21-.38-.4-.43-.99-.6-1.35-.69-.19-.05-.34-.07-.44-.09l-.15-.03h-.02c-.25-.05-.42-.29-.37-.54,.04-.25,.29-.42,.54-.38h0l.17,.03c.11,.02,.28,.05,.5,.11,.22,.06,.49,.14,.8,.28,.31,.14,.68,.35,1,.73,.16,.19,.29,.43,.37,.71,.04,.13,.06,.27,.07,.44,0,.11,0,.28-.02,.42-.09,.6-.47,1.18-1.03,1.52-.14,.09-.29,.16-.45,.22-.08,.03-.18,.06-.26,.08l-.11,.02-.12,.02c-.29,.05-.58,.1-.88,.15-.6,.1-1.24,.21-1.9,.32-.66,.11-1.35,.23-2.07,.35-.73,.13-1.5,.21-2.28,.23-1.54,.03-3.17,.07-4.85,.1-3.36,.07-6.95,.15-10.53,.22-14.34,.3-28.69,.6-28.69,.6Z"/><path class="cls-2" d="M141.98,81.79s-.04,.15-.12,.4c-.08,.25-.19,.62-.34,1.06-.3,.87-.73,2.01-1.19,3.14-.47,1.13-.97,2.24-1.38,3.06-.2,.41-.38,.75-.5,.99-.12,.24-.2,.37-.2,.37,0,0,.04-.15,.12-.4,.08-.25,.19-.62,.34-1.06,.3-.87,.73-2.01,1.19-3.14,.47-1.13,.97-2.24,1.38-3.06,.2-.41,.38-.75,.5-.99,.12-.24,.2-.37,.2-.37Z"/><path class="cls-2" d="M231.77,21.27s-.77,.15-2.22,.46c-1.44,.31-3.56,.78-6.25,1.39-2.69,.61-5.95,1.37-9.68,2.26-1.87,.45-3.85,.92-5.94,1.42-2.09,.51-4.29,1.05-6.58,1.61-4.58,1.14-9.53,2.37-14.77,3.67-1.31,.35-2.63,.71-3.98,1.07-1.34,.35-2.71,.7-4.06,1.1-2.71,.8-5.5,1.53-8.32,2.38-2.83,.82-5.71,1.65-8.63,2.49-2.91,.88-5.86,1.72-8.84,2.6-5.94,1.77-11.97,3.6-17.98,5.47-3.01,.93-6.01,1.87-9,2.83-2.99,.95-5.97,1.9-8.92,2.84-5.91,1.89-11.72,3.77-17.33,5.61-5.61,1.85-11.04,3.63-16.18,5.32-5.14,1.71-10,3.33-14.48,4.82-4.48,1.51-8.58,2.9-12.2,4.17-1.82,.62-3.5,1.24-5.06,1.8-.78,.28-1.5,.58-2.21,.85l-.13,.05s-.07,.04-.11,.06l-.25,.14c-.16,.09-.32,.18-.48,.27-.28,.2-.56,.39-.82,.59-1.03,.85-1.75,1.84-2.27,2.75-.52,.91-.85,1.75-1.08,2.45-.23,.69-.36,1.24-.44,1.61-.08,.37-.1,.56-.1,.56l-.32-.04s.02-.2,.09-.58c.07-.38,.19-.94,.4-1.66,.21-.72,.53-1.59,1.04-2.55,.51-.96,1.23-2.02,2.31-2.96,.28-.23,.58-.45,.89-.68,.16-.09,.31-.19,.48-.28l.24-.14s.06-.04,.14-.08l.13-.06c.71-.3,1.45-.63,2.23-.93,1.55-.59,3.23-1.26,5.03-1.92,3.6-1.36,7.67-2.85,12.11-4.47,4.45-1.6,9.27-3.34,14.37-5.18,2.55-.92,5.17-1.84,7.86-2.78,2.69-.94,5.43-1.9,8.22-2.87,5.58-1.95,11.36-3.94,17.23-5.94,2.94-1,5.9-2,8.88-3.01,2.97-1.01,5.96-2.01,8.96-3,5.98-2.02,11.98-3.96,17.88-5.9,2.96-.95,5.89-1.9,8.8-2.81,2.92-.89,5.8-1.76,8.63-2.62,1.42-.42,2.84-.81,4.25-1.2,1.41-.38,2.8-.77,4.18-1.14,2.76-.75,5.46-1.36,8.1-2,2.66-.58,5.24-1.14,7.74-1.69,2.5-.52,4.92-1.01,7.24-1.47,4.64-.93,8.91-1.7,12.71-2.35,3.79-.64,7.11-1.17,9.85-1.55,2.74-.39,4.89-.65,6.37-.8,1.47-.16,2.26-.22,2.26-.22l.04,.32Z"/><path class="cls-1" d="M226.95,13.41s12.42-1.87,21.08-2.94c8.66-1.07,13.36-.68,14.42,2.19,1.05,2.87-.18,7.17-1.52,7.55-1.34,.38-13.18-1.96-29.21,3.21-.03-3.35-1.01-4.51-1.01-4.51l-3.75-5.5Z"/><g><polygon class="cls-2" points="9.21 49.96 1.7 51.1 9.13 49.5 9.37 49.62 9.21 49.96"/><polygon class="cls-2" points="10.02 51.54 2.51 52.68 9.93 51.08 10.02 51.54"/><polygon class="cls-2" points="10.82 53.11 3.32 54.25 10.74 52.66 10.82 53.11"/><polygon class="cls-2" points="11.63 54.69 4.13 55.83 11.55 54.24 11.63 54.69"/><polygon class="cls-2" points="12.44 56.27 4.93 57.41 12.35 55.82 12.44 56.27"/><polygon class="cls-2" points="13.24 57.85 5.74 58.99 13.16 57.39 13.24 57.85"/><polygon class="cls-2" points="14.05 59.43 6.55 60.57 13.97 58.97 14.05 59.43"/><polygon class="cls-2" points="14.86 61.01 7.35 62.15 14.77 60.55 14.86 61.01"/><polygon class="cls-2" points="15.66 62.59 8.16 63.72 15.58 62.13 15.66 62.59"/><polygon class="cls-2" points="16.47 64.16 8.97 65.3 16.39 63.71 16.47 64.16"/><polygon class="cls-2" points="17.28 65.74 9.77 66.88 17.19 65.29 17.28 65.74"/><polygon class="cls-2" points="18.08 67.32 10.58 68.46 18 66.87 18.08 67.32"/><polygon class="cls-2" points="18.89 68.9 11.39 70.04 18.81 68.44 18.89 68.9"/><polygon class="cls-2" points="19.7 70.48 12.19 71.62 19.61 70.02 19.7 70.48"/><polygon class="cls-2" points="20.5 72.06 13 73.2 20.42 71.6 20.5 72.06"/><polygon class="cls-2" points="21.31 73.64 13.81 74.77 21.23 73.18 21.31 73.64"/><polygon class="cls-2" points="22.12 75.21 14.61 76.35 22.03 74.76 22.12 75.21"/><polygon class="cls-2" points="22.92 76.79 15.42 77.93 22.84 76.34 22.92 76.79"/><polygon class="cls-2" points="23.73 78.37 16.23 79.51 23.65 77.92 23.73 78.37"/><polygon class="cls-2" points="24.54 79.95 17.03 81.09 24.45 79.49 24.54 79.95"/><polygon class="cls-2" points="25.34 81.53 17.84 82.67 25.26 81.07 25.34 81.53"/><polygon class="cls-2" points="26.15 83.11 18.65 84.25 26.07 82.65 26.15 83.11"/><polygon class="cls-2" points="26.96 84.69 19.45 85.82 26.87 84.23 26.96 84.69"/><polygon class="cls-2" points="27.76 86.26 20.26 87.4 27.68 85.81 27.76 86.26"/><polygon class="cls-2" points="28.57 87.84 21.07 88.98 28.49 87.39 28.57 87.84"/></g><polygon class="cls-2" points="28.37 87.87 8.96 49.83 9.37 49.62 28.86 87.83 28.37 87.87"/><path class="cls-2" d="M22.59,91.77l.41,.34c.26,.22,.65,.51,1.1,.87,.46,.36,1,.76,1.59,1.17,.29,.21,.6,.42,.92,.63,.31,.22,.64,.41,.97,.62,.33,.2,.66,.39,.99,.58,.34,.17,.66,.36,.98,.51,.33,.14,.64,.31,.94,.43,.31,.12,.6,.24,.87,.34,.28,.08,.53,.16,.75,.23,.22,.08,.43,.1,.59,.14,.33,.08,.52,.12,.52,.12,0,0-.19,0-.53-.03-.17-.02-.38-.01-.61-.06-.23-.04-.5-.09-.79-.15-.28-.07-.59-.17-.91-.27-.32-.1-.65-.24-.99-.38-.34-.15-.68-.32-1.03-.49-.34-.19-.68-.38-1.02-.58-.33-.22-.66-.42-.98-.64-.32-.22-.62-.45-.91-.67-.58-.45-1.08-.91-1.52-1.3-.85-.8-1.34-1.41-1.34-1.41Z"/><path class="cls-1" d="M277.07,40.14c1.25-6.09,.51-10.96-2.21-14.48-4.66-6.04-13.8-6.61-13.89-6.61l.32-6.48c.49,.02,12.15,.68,18.67,9.09,3.95,5.09,5.11,11.75,3.46,19.8l-6.36-1.31Z"/><path class="cls-2" d="M94.59,83.17s-6.09,.07-12.18,.21c-1.52,.04-3.04,.07-4.47,.13-.36,.02-.71,.03-1.05,.05-.17,.01-.34,.02-.5,.05-.16,.04-.32,.08-.47,.13-.62,.2-1.15,.53-1.54,.94-.4,.41-.66,.86-.85,1.28-.09,.21-.18,.41-.23,.6-.07,.19-.12,.37-.15,.53-.09,.32-.13,.58-.15,.76l-.05,.27,.04-.27c.03-.18,.06-.44,.14-.76,.03-.16,.08-.34,.14-.53,.05-.19,.13-.4,.22-.61,.19-.43,.44-.89,.84-1.32,.39-.43,.93-.78,1.56-1,.16-.05,.31-.1,.48-.14,.18-.03,.34-.05,.51-.06,.34-.03,.69-.05,1.05-.07,1.43-.09,2.95-.15,4.47-.22,6.09-.25,12.18-.44,12.18-.44v.46Z"/><path class="cls-2" d="M23.23,37.89s.38,.61,1.03,1.69c.64,1.08,1.58,2.62,2.67,4.48,1.09,1.86,2.35,4.04,3.68,6.38,.66,1.17,1.35,2.39,2.04,3.62,.69,1.24,1.39,2.49,2.09,3.75,.69,1.26,1.38,2.52,2.06,3.76,.67,1.25,1.33,2.47,1.97,3.66,1.27,2.38,2.45,4.6,3.44,6.52,1,1.91,1.79,3.53,2.36,4.65,.56,1.13,.88,1.77,.88,1.77,0,0-.38-.61-1.03-1.69-.64-1.08-1.58-2.61-2.67-4.48-1.09-1.86-2.35-4.04-3.68-6.38-.66-1.17-1.35-2.39-2.04-3.62-.69-1.24-1.39-2.49-2.09-3.75-.69-1.26-1.38-2.52-2.06-3.76-.67-1.25-1.33-2.47-1.97-3.66-1.27-2.38-2.45-4.6-3.44-6.52-1-1.91-1.79-3.53-2.36-4.65-.56-1.12-.88-1.77-.88-1.77Z"/><path class="cls-2" d="M229.27,14.58s28.64-5.84,31.55-2.64c0,0,1.97,2.09-.3,7.04,1.3-4.74-3.87-10.1-31.26-4.39Z"/><path class="cls-2" d="M264.93,14.5s.4,.03,1.09,.14c.69,.12,1.68,.3,2.83,.65,.58,.17,1.19,.38,1.84,.63,.64,.25,1.32,.53,1.98,.89,.68,.34,1.34,.74,2.01,1.17,.65,.45,1.31,.92,1.92,1.46,.61,.53,1.16,1.12,1.68,1.73,.25,.31,.49,.62,.73,.93,.21,.33,.44,.64,.63,.96,.4,.65,.71,1.31,.98,1.95,.12,.32,.24,.64,.36,.94,.09,.31,.18,.61,.27,.9,.15,.58,.27,1.13,.34,1.61,.06,.49,.14,.9,.15,1.26l.06,1.1s-.05-.4-.15-1.09c-.04-.35-.14-.76-.23-1.23-.04-.24-.12-.48-.19-.75-.08-.26-.13-.54-.23-.82-.1-.28-.2-.57-.3-.88-.12-.29-.25-.6-.39-.91-.29-.62-.63-1.24-1.01-1.87-.19-.32-.42-.62-.63-.93-.23-.3-.47-.6-.72-.9-.52-.58-1.06-1.15-1.66-1.66-.58-.53-1.22-1-1.85-1.45-.65-.43-1.3-.83-1.96-1.17-1.31-.7-2.59-1.24-3.72-1.63s-2.09-.66-2.77-.81c-.68-.16-1.07-.23-1.07-.23Z"/><path class="cls-2" d="M213.12,.82s.34,.24,.91,.69c.57,.45,1.39,1.09,2.34,1.91,.95,.81,2.05,1.77,3.18,2.84,1.13,1.08,2.31,2.25,3.46,3.47,1.13,1.23,2.21,2.5,3.17,3.74,.96,1.24,1.75,2.47,2.37,3.57,.31,.54,.56,1.06,.77,1.53,.2,.47,.37,.88,.48,1.23,.13,.34,.18,.63,.24,.81l.07,.29-.1-.28c-.07-.18-.15-.46-.3-.79-.13-.34-.32-.74-.55-1.19-.24-.44-.51-.94-.84-1.47-.64-1.06-1.5-2.23-2.46-3.45-.96-1.22-2.05-2.47-3.19-3.68-1.12-1.22-2.28-2.41-3.4-3.49-1.11-1.09-2.16-2.1-3.08-2.94-.92-.84-1.68-1.55-2.22-2.03-.54-.48-.85-.76-.85-.76Z"/><path class="cls-2" d="M77.96,21.53s.42-.13,1.22-.39c.8-.25,1.97-.62,3.46-1.06,1.49-.45,3.32-.96,5.41-1.56,2.09-.58,4.45-1.25,7.05-1.91,1.29-.33,2.64-.68,4.04-1.04,1.4-.34,2.85-.7,4.34-1.07,2.97-.75,6.13-1.45,9.39-2.19,1.64-.35,3.3-.7,4.98-1.06,1.68-.35,3.38-.73,5.11-1.06,3.45-.66,6.94-1.39,10.46-1.98,1.76-.3,3.52-.6,5.27-.9s3.51-.54,5.24-.81c1.74-.26,3.46-.52,5.16-.78,1.71-.22,3.39-.44,5.05-.66,1.66-.21,3.29-.42,4.89-.62,1.6-.16,3.17-.32,4.69-.47,3.05-.3,5.93-.61,8.6-.77,2.67-.18,5.12-.35,7.28-.49,2.17-.08,4.07-.14,5.62-.2,3.12-.1,4.9-.15,4.9-.15,0,0-1.78,.12-4.89,.33-1.56,.1-3.44,.22-5.61,.36-2.16,.2-4.6,.42-7.26,.67-2.66,.2-5.54,.57-8.58,.92-1.52,.18-3.08,.36-4.68,.55-1.59,.22-3.22,.44-4.87,.67-1.65,.22-3.34,.45-5.04,.68-1.7,.27-3.42,.54-5.15,.81-1.73,.28-3.48,.53-5.23,.84-1.75,.31-3.5,.62-5.25,.93-3.52,.57-7.01,1.28-10.45,1.92-1.73,.31-3.42,.69-5.11,1.02-1.68,.35-3.35,.69-4.98,1.03-1.63,.36-3.24,.71-4.81,1.05-1.57,.33-3.11,.67-4.6,1.01-1.49,.34-2.94,.67-4.35,.99-1.4,.34-2.75,.66-4.05,.97-2.6,.62-4.97,1.22-7.08,1.73-2.1,.54-3.94,1-5.45,1.4-1.51,.4-2.69,.72-3.5,.93-.81,.22-1.24,.34-1.24,.34Z"/><path class="cls-2" d="M229.13,26.18s-.64,5.64-7.93,14.1c-15.82,6.68-47.25,20.95-47.25,20.95,0,0,51.45-21.89,55.18-35.05Z"/><path class="cls-2" d="M92.34,66.49s1.64-.59,4.5-1.62c2.87-1.03,6.95-2.51,11.88-4.23,4.93-1.72,10.67-3.74,16.85-5.84,3.09-1.05,6.28-2.13,9.53-3.22,3.25-1.08,6.55-2.18,9.85-3.28,3.31-1.07,6.62-2.14,9.88-3.2,3.27-1.03,6.48-2.05,9.59-3.03,3.12-.95,6.14-1.86,9-2.73,2.87-.83,5.59-1.61,8.1-2.33,2.52-.68,4.83-1.32,6.88-1.83,2.06-.49,3.86-.92,5.34-1.27,2.99-.57,4.7-.89,4.7-.89,0,0-1.7,.35-4.68,.97-1.47,.38-3.26,.83-5.32,1.36-2.05,.55-4.34,1.23-6.85,1.92-2.5,.74-5.21,1.55-8.07,2.4-2.85,.89-5.86,1.82-8.98,2.79-3.11,.99-6.32,2.02-9.58,3.06-3.25,1.06-6.56,2.15-9.87,3.23-3.3,1.09-6.61,2.18-9.86,3.25-3.25,1.09-6.44,2.16-9.54,3.19-6.18,2.09-11.95,4.04-16.89,5.71-9.88,3.37-16.47,5.61-16.47,5.61Z"/></svg>